/* XPM */
static char * bitcoin32_xpm[] = {
"32 32 631 2",
"  	c None",
". 	c #744814",
"+ 	c #3F3115",
"@ 	c #19170D",
"# 	c #191305",
"$ 	c #5C3907",
"% 	c #72480A",
"& 	c #68460F",
"* 	c #6C450A",
"= 	c #694409",
"- 	c #493302",
"; 	c #985D06",
"> 	c #81440C",
", 	c #6E2F13",
"' 	c #571E01",
") 	c #844000",
"! 	c #A86E04",
"~ 	c #735006",
"{ 	c #6C4D08",
"] 	c #694403",
"^ 	c #522402",
"/ 	c #411505",
"( 	c #53170B",
"_ 	c #431B0B",
": 	c #391403",
"< 	c #884400",
"[ 	c #A66506",
"} 	c #B7730C",
"| 	c #9C510A",
"1 	c #632101",
"2 	c #572000",
"3 	c #653000",
"4 	c #5C3904",
"5 	c #6E4407",
"6 	c #7A4D06",
"7 	c #7D4608",
"8 	c #7D2004",
"9 	c #570C05",
"0 	c #4C1109",
"a 	c #511C13",
"b 	c #4F2211",
"c 	c #4B1E18",
"d 	c #591504",
"e 	c #641602",
"f 	c #B14003",
"g 	c #BA5011",
"h 	c #67320F",
"i 	c #271001",
"j 	c #1C1000",
"k 	c #261100",
"l 	c #1A0700",
"m 	c #2B1408",
"n 	c #402209",
"o 	c #562508",
"p 	c #7C3C0F",
"q 	c #8B2608",
"r 	c #761D09",
"s 	c #5D180F",
"t 	c #591309",
"u 	c #5C1B07",
"v 	c #2E1915",
"w 	c #351005",
"x 	c #391604",
"y 	c #882302",
"z 	c #AC2501",
"A 	c #5E1602",
"B 	c #180C09",
"C 	c #240E03",
"D 	c #190B02",
"E 	c #0C0602",
"F 	c #100605",
"G 	c #200806",
"H 	c #21120B",
"I 	c #32150D",
"J 	c #391712",
"K 	c #521004",
"L 	c #611A01",
"M 	c #3B1304",
"N 	c #3B190D",
"O 	c #5B1D08",
"P 	c #842A12",
"Q 	c #662217",
"R 	c #511409",
"S 	c #301B07",
"T 	c #582D00",
"U 	c #7E3200",
"V 	c #4A1600",
"W 	c #050200",
"X 	c #030207",
"Y 	c #3B3C3D",
"Z 	c #5B5554",
"` 	c #635753",
" .	c #675656",
"..	c #665959",
"+.	c #251210",
"@.	c #1A1412",
"#.	c #1C1514",
"$.	c #230B09",
"%.	c #200503",
"&.	c #160600",
"*.	c #2C0C01",
"=.	c #1F0E07",
"-.	c #190F07",
";.	c #432214",
">.	c #9B4924",
",.	c #4F1909",
"'.	c #150503",
").	c #55360E",
"!.	c #643901",
"~.	c #6F3C00",
"{.	c #221000",
"].	c #000000",
"^.	c #020306",
"/.	c #B3B3B5",
"(.	c #FFFFFF",
"_.	c #E9E8E8",
":.	c #211614",
"<.	c #221E1D",
"[.	c #0A0707",
"}.	c #040303",
"|.	c #080302",
"1.	c #070200",
"2.	c #060100",
"3.	c #0D0502",
"4.	c #221C13",
"5.	c #221714",
"6.	c #562819",
"7.	c #9C5424",
"8.	c #361F10",
"9.	c #31180B",
"0.	c #522F12",
"a.	c #552E07",
"b.	c #3D1A01",
"c.	c #190C00",
"d.	c #010000",
"e.	c #040506",
"f.	c #B3B4B4",
"g.	c #E8E8E8",
"h.	c #181212",
"i.	c #14100E",
"j.	c #090605",
"k.	c #050505",
"l.	c #0D0403",
"m.	c #030000",
"n.	c #020000",
"o.	c #090401",
"p.	c #4E3C2A",
"q.	c #221E1B",
"r.	c #2D1916",
"s.	c #6A4126",
"t.	c #835036",
"u.	c #64402D",
"v.	c #2A110C",
"w.	c #573B21",
"x.	c #2F1A11",
"y.	c #140700",
"z.	c #100200",
"A.	c #0D0100",
"B.	c #030505",
"C.	c #040708",
"D.	c #B4B3B3",
"E.	c #E7E7E7",
"F.	c #0A0A0A",
"G.	c #120C0C",
"H.	c #0A0402",
"I.	c #110806",
"J.	c #070201",
"K.	c #080202",
"L.	c #040200",
"M.	c #040100",
"N.	c #402C20",
"O.	c #40281C",
"P.	c #372B1E",
"Q.	c #654C30",
"R.	c #986743",
"S.	c #77351A",
"T.	c #381108",
"U.	c #402017",
"V.	c #5A3D32",
"W.	c #4A2A22",
"X.	c #250800",
"Y.	c #2F0500",
"Z.	c #120000",
"`.	c #150502",
" +	c #070B0B",
".+	c #0E0E0E",
"++	c #BDB5B4",
"@+	c #060606",
"#+	c #0B0606",
"$+	c #140A08",
"%+	c #040000",
"&+	c #070101",
"*+	c #090001",
"=+	c #070000",
"-+	c #2B120C",
";+	c #280602",
">+	c #29150E",
",+	c #463124",
"'+	c #7D4328",
")+	c #963D1C",
"!+	c #6D1E0E",
"~+	c #4C130C",
"{+	c #64221C",
"]+	c #71342A",
"^+	c #7B453A",
"/+	c #2A0903",
"(+	c #370800",
"_+	c #500A00",
":+	c #131414",
"<+	c #131818",
"[+	c #1E110D",
"}+	c #C3BBB9",
"|+	c #030202",
"1+	c #150B09",
"2+	c #1C0A03",
"3+	c #170700",
"4+	c #120400",
"5+	c #160300",
"6+	c #200302",
"7+	c #220601",
"8+	c #1C0806",
"9+	c #1A0502",
"0+	c #200804",
"a+	c #3E2718",
"b+	c #724831",
"c+	c #763A23",
"d+	c #7D3E23",
"e+	c #5E2C13",
"f+	c #75342C",
"g+	c #9B4A3C",
"h+	c #B85340",
"i+	c #9A200B",
"j+	c #861703",
"k+	c #541104",
"l+	c #1A1B1D",
"m+	c #1A2224",
"n+	c #262525",
"o+	c #B7B6B6",
"p+	c #040404",
"q+	c #0C0808",
"r+	c #0A0100",
"s+	c #0C0200",
"t+	c #160402",
"u+	c #110202",
"v+	c #080606",
"w+	c #120C0A",
"x+	c #26160A",
"y+	c #302314",
"z+	c #1D0E09",
"A+	c #70422C",
"B+	c #724229",
"C+	c #361E10",
"D+	c #37281D",
"E+	c #773625",
"F+	c #B05646",
"G+	c #A85647",
"H+	c #982F16",
"I+	c #6F1D09",
"J+	c #180C0B",
"K+	c #141314",
"L+	c #1D1F22",
"M+	c #18191C",
"N+	c #B2B2B2",
"O+	c #020100",
"P+	c #020101",
"Q+	c #080104",
"R+	c #090608",
"S+	c #211E1E",
"T+	c #25150B",
"U+	c #070807",
"V+	c #080808",
"W+	c #270B0A",
"X+	c #664436",
"Y+	c #2B1D14",
"Z+	c #1C1710",
"`+	c #2F2621",
" @	c #613022",
".@	c #B26757",
"+@	c #8F4C3E",
"@@	c #542414",
"#@	c #2D1914",
"$@	c #161B1B",
"%@	c #15191A",
"&@	c #1E191A",
"*@	c #08080B",
"=@	c #040202",
"-@	c #080206",
";@	c #15090E",
">@	c #2E282A",
",@	c #311D17",
"'@	c #0A0303",
")@	c #393935",
"!@	c #373029",
"~@	c #2D221B",
"{@	c #221B1B",
"]@	c #543029",
"^@	c #9F6C5C",
"/@	c #89301D",
"(@	c #2C2522",
"_@	c #363937",
":@	c #272C2C",
"<@	c #111012",
"[@	c #020104",
"}@	c #030101",
"|@	c #0E0405",
"1@	c #260906",
"2@	c #4E201B",
"3@	c #463835",
"4@	c #080301",
"5@	c #0B0A09",
"6@	c #161817",
"7@	c #38302A",
"8@	c #1C0E0C",
"9@	c #221716",
"0@	c #7C4E43",
"a@	c #8F8A82",
"b@	c #672E23",
"c@	c #59362D",
"d@	c #403935",
"e@	c #392C24",
"f@	c #201D1A",
"g@	c #090A0B",
"h@	c #060202",
"i@	c #0C0404",
"j@	c #1C0803",
"k@	c #1C0605",
"l@	c #362A27",
"m@	c #342C2A",
"n@	c #272424",
"o@	c #1F160D",
"p@	c #161714",
"q@	c #292220",
"r@	c #170B0B",
"s@	c #59463C",
"t@	c #8E6659",
"u@	c #907C6F",
"v@	c #413D3D",
"w@	c #494442",
"x@	c #262523",
"y@	c #231915",
"z@	c #1E1713",
"A@	c #0D0A09",
"B@	c #030206",
"C@	c #070303",
"D@	c #0B0403",
"E@	c #0E0604",
"F@	c #151010",
"G@	c #3F2C24",
"H@	c #776B69",
"I@	c #63514A",
"J@	c #332413",
"K@	c #29261E",
"L@	c #322F2E",
"M@	c #0E0D0D",
"N@	c #502B1D",
"O@	c #855E47",
"P@	c #8B8880",
"Q@	c #565C5B",
"R@	c #3C3C3C",
"S@	c #0A0808",
"T@	c #120D0D",
"U@	c #21130C",
"V@	c #1C0D06",
"W@	c #040306",
"X@	c #040203",
"Y@	c #0A0404",
"Z@	c #261E1A",
"`@	c #36271E",
" #	c #645957",
".#	c #77543A",
"+#	c #291C0B",
"@#	c #3D372C",
"##	c #413A34",
"$#	c #27201B",
"%#	c #3A332C",
"&#	c #42605E",
"*#	c #7C9FA0",
"=#	c #6B8081",
"-#	c #161919",
";#	c #050606",
">#	c #0E0C0A",
",#	c #180C05",
"'#	c #1E0C05",
")#	c #0F0705",
"!#	c #B2B2B3",
"~#	c #040204",
"{#	c #070204",
"]#	c #100905",
"^#	c #0D0804",
"/#	c #2E1E10",
"(#	c #6D513F",
"_#	c #815A3C",
":#	c #47301E",
"<#	c #686057",
"[#	c #5D5850",
"}#	c #463F3A",
"|#	c #283234",
"1#	c #3F6062",
"2#	c #6DA1A4",
"3#	c #4E6D6E",
"4#	c #171A19",
"5#	c #1B1818",
"6#	c #0C0A09",
"7#	c #0C0A0B",
"8#	c #160B06",
"9#	c #B4B3B5",
"0#	c #040201",
"a#	c #100500",
"b#	c #0F0903",
"c#	c #221607",
"d#	c #553816",
"e#	c #855627",
"f#	c #6A492E",
"g#	c #58351E",
"h#	c #69554C",
"i#	c #5A4A47",
"j#	c #3A2A29",
"k#	c #446366",
"l#	c #598689",
"m#	c #3C5A5D",
"n#	c #2E2020",
"o#	c #2A1716",
"p#	c #080404",
"q#	c #B8B5B5",
"r#	c #190700",
"s#	c #040403",
"t#	c #1D1408",
"u#	c #794F1A",
"v#	c #643A1E",
"w#	c #381F17",
"x#	c #391C19",
"y#	c #52322F",
"z#	c #3C1B1A",
"A#	c #324347",
"B#	c #455F63",
"C#	c #526B6E",
"D#	c #3C3E3E",
"E#	c #3A3031",
"F#	c #262A2A",
"G#	c #120E0E",
"H#	c #B7B4B2",
"I#	c #FEFEFE",
"J#	c #F5F5F5",
"K#	c #747472",
"L#	c #583A16",
"M#	c #3E2512",
"N#	c #361810",
"O#	c #210A06",
"P#	c #280A08",
"Q#	c #44120B",
"R#	c #2B0D0C",
"S#	c #111112",
"T#	c #2C4245",
"U#	c #4B646B",
"V#	c #3A4E53",
"W#	c #323A3F",
"X#	c #343C3E",
"Y#	c #0D1010",
"Z#	c #010102",
"`#	c #B4B2B2",
" $	c #9A8F80",
".$	c #3A240F",
"+$	c #190B07",
"@$	c #300907",
"#$	c #280C0A",
"$$	c #2A0C0A",
"%$	c #360E08",
"&$	c #4C1F15",
"*$	c #020203",
"=$	c #343E44",
"-$	c #3A444B",
";$	c #2E3B40",
">$	c #2C3439",
",$	c #1F2526",
"'$	c #070606",
")$	c #080506",
"!$	c #B6B4B4",
"~$	c #9C8E7D",
"{$	c #0E0504",
"]$	c #450D0B",
"^$	c #461412",
"/$	c #431714",
"($	c #391513",
"_$	c #24272B",
":$	c #282B30",
"<$	c #283035",
"[$	c #181D20",
"}$	c #101617",
"|$	c #131616",
"1$	c #070404",
"2$	c #8C878A",
"3$	c #C9C4C2",
"4$	c #C1C0C0",
"5$	c #C0C0C0",
"6$	c #C3C3C1",
"7$	c #C4C2C1",
"8$	c #CAC5C2",
"9$	c #C9C3C2",
"0$	c #CBC7C3",
"a$	c #807163",
"b$	c #0F0604",
"c$	c #1F0706",
"d$	c #561614",
"e$	c #5F1B19",
"f$	c #421412",
"g$	c #301615",
"h$	c #272D32",
"i$	c #171518",
"j$	c #1E2125",
"k$	c #0D0C0E",
"l$	c #040606",
"m$	c #181C1F",
"n$	c #080A0A",
"o$	c #0C050A",
"p$	c #12080E",
"q$	c #0B0804",
"r$	c #181815",
"s$	c #1A1502",
"t$	c #2A1D07",
"u$	c #381C10",
"v$	c #341C0E",
"w$	c #45311A",
"x$	c #624A28",
"y$	c #312316",
"z$	c #422B22",
"A$	c #7E2827",
"B$	c #451010",
"C$	c #100707",
"D$	c #040304",
"E$	c #131013",
"F$	c #0A0C0E",
"G$	c #1B1E1E",
"H$	c #22252C",
"I$	c #0C080D",
"J$	c #080408",
"K$	c #120706",
"L$	c #050102",
"M$	c #050305",
"N$	c #030204",
"O$	c #06090E",
"P$	c #1E1F20",
"Q$	c #271C0B",
"R$	c #2B161A",
"S$	c #2F1D1A",
"T$	c #403116",
"U$	c #664E2C",
"V$	c #654F37",
"W$	c #7E594B",
"X$	c #4D1614",
"Y$	c #160707",
"Z$	c #08090A",
"`$	c #090A0C",
" %	c #282732",
".%	c #2F2832",
"+%	c #2E2D35",
"@%	c #1A1E24",
"#%	c #060407",
"$%	c #120906",
"%%	c #180501",
"&%	c #100507",
"*%	c #0F080B",
"=%	c #0A070A",
"-%	c #110B07",
";%	c #1C0D0C",
">%	c #2B191A",
",%	c #362620",
"'%	c #644C26",
")%	c #826438",
"!%	c #9A7548",
"~%	c #8A704A",
"{%	c #5E462F",
"]%	c #10111F",
"^%	c #20192E",
"/%	c #332F3C",
"(%	c #2D2A34",
"_%	c #16161C",
":%	c #12151A",
"<%	c #101010",
"[%	c #240E08",
"}%	c #381613",
"|%	c #1A1020",
"1%	c #020209",
"2%	c #010005",
"3%	c #140D0F",
"4%	c #1A0E13",
"5%	c #160A1B",
"6%	c #44381E",
"7%	c #645531",
"8%	c #786A40",
"9%	c #464027",
"0%	c #322F1E",
"a%	c #0D0F14",
"b%	c #03070C",
"c%	c #070B15",
"d%	c #0E0E20",
"e%	c #181C31",
"f%	c #202635",
"g%	c #362830",
"h%	c #291F31",
"i%	c #100D2E",
"j%	c #080C1F",
"k%	c #0A0B22",
"l%	c #10061F",
"m%	c #110222",
"n%	c #1E1318",
"o%	c #454021",
"p%	c #221F14",
"q%	c #0E0D08",
"r%	c #0E0D0C",
"s%	c #070707",
"t%	c #010202",
"u%	c #101218",
"v%	c #262C3E",
"w%	c #2C2D3A",
"x%	c #35343B",
"y%	c #222037",
"z%	c #141740",
"A%	c #150A32",
"B%	c #16052E",
"C%	c #110223",
"D%	c #120A11",
"E%	c #27230E",
"F%	c #171610",
"G%	c #282D34",
"H%	c #2B2A27",
"I%	c #1C1917",
"J%	c #060708",
"K%	c #070D1E",
"L%	c #0F0922",
"M%	c #150926",
"N%	c #130820",
"                        . + @ # $ % & *                         ",
"                  = - ; > , ' ) ! ~ { ] ^ / (                   ",
"              _ : < [ } | 1 2 3 4 5 6 7 8 9 0 a b               ",
"            c d e f g h i j k l m n o p q r s t u v             ",
"          w x y z A B C D E F G H I J K L M N O P Q R           ",
"        S T U V W X Y Z `  ...+.@.#.$.%.&.*.=.-.;.>.,.'.        ",
"      ).!.~.{.].].^./.(.(.(._.:.<.[.}.|.1.2.3.4.5.6.7.8.9.      ",
"    0.a.b.c.d.].].e.f.(.(.(.g.h.i.j.k.l.m.n.o.p.q.r.s.t.u.v.    ",
"    w.x.y.z.A.].B.C.D.(.(.(.E.F.G.H.I.J.K.L.M.N.O.P.Q.R.S.T.    ",
"  U.V.W.X.Y.Z.`. +.+++(.(.(.E.@+#+$+J.%+&+*+=+-+;+>+,+'+)+!+~+  ",
"  {+]+^+/+(+_+:+<+[+}+(.(.(.E.|+1+2+3+4+5+6+7+8+9+0+a+b+c+d+e+  ",
"  f+g+h+i+j+k+l+m+n+o+(.(.(.E.p+q+].].r+s+t+u+v+w+x+y+z+A+B+C+  ",
"D+E+F+G+H+I+J+K+L+M+N+(.(.(.E.].].].].=+O+P+Q+R+S+T+U+V+W+X+Y+Z+",
"`+ @.@+@@@#@$@%@&@*@N+(.(.(.E.].].].].d.=@P+-@;@>@,@].].'@)@!@~@",
"{@]@^@/@U.(@_@:@<@[@N+(.(.(.E.].].].].].}@=@|@1@2@3@4@p+5@6@7@8@",
"9@0@a@b@c@d@e@f@g@[@N+(.(.(.E.].].].].].d.h@i@j@k@l@m@n@o@p@q@r@",
"s@t@u@v@w@x@y@z@A@B@N+(.(.(.E.].].].].].].C@D@E@F@G@H@I@J@K@L@M@",
"N@O@P@Q@R@S@T@U@V@W@N+(.(.(.E.].].].].].].X@Y@Y@Z@`@ #.#+#@###$#",
"%#&#*#=#-#;#>#,#'#)#!#(.(.(.E.].].].].].].~#{#]#^#/#(#_#:#<#[#}#",
"|#1#2#3#4#5#6#v+7#8#9#(.(.(.E.].].].].].].0#a#b#c#d#e#f#g#h#i#j#",
"  k#l#m#:@n#o#[.].p#q#(.(.(.E.].].].].].].r#s#].t#u#v#w#x#y#z#  ",
"  A#B#C#D#E#F#G#d.].H#(.(.(.I#J#J#J#J#J#J#J#J#K#L#M#N#O#P#Q#R#  ",
"  S#T#U#V#W#X#Y#Z#].`#(.(.(.(.(.(.(.(.(.(.(.(. $.$+$@$#$$$%$&$  ",
"    *$=$-$;$>$,$'$)$!$(.(.(.(.(.(.(.(.(.(.(.(.~$0#{$]$^$/$($    ",
"    F._$:$<$[$}$|$1$2$3$4$5$5$5$5$5$6$7$8$9$0$a$b$c$d$e$f$g$    ",
"      h$i$j$k$l$m$n$o$p$3.Z#].d.q$r$s$t$u$v$w$x$y$z$A$B$C$      ",
"        k$D$E$F$G$H$I$J$K$L$M$N$O$P$Q$>+R$S$T$U$V$W$X$Y$        ",
"          Z$`$ %.%+%@%#%$%%%&%*%=%N$-%;%>%,%'%)%!%~%{%          ",
"            ]%^%/%(%_%:%<%[%}%|%1%2%3%4%5%6%7%8%9%0%            ",
"              a%b%c%d%e%f%g%h%i%j%k%l%m%n%o%p%q%r%              ",
"                  s%t%u%v%w%x%y%z%A%B%C%D%E%F%                  ",
"                        G%H%I%J%K%L%M%N%                        "};
