/* XPM */
static char * bitcoin16_xpm[] = {
"16 16 182 2",
"  	c None",
". 	c #744A07",
"+ 	c #6A3A12",
"@ 	c #442205",
"# 	c #7A5007",
"$ 	c #6A4709",
"% 	c #532607",
"& 	c #4F1A0D",
"* 	c #762C02",
"= 	c #A0560C",
"- 	c #502403",
"; 	c #3F1A00",
"> 	c #4D2D07",
", 	c #723D09",
"' 	c #751C06",
") 	c #55160D",
"! 	c #491C0F",
"~ 	c #3F1E05",
"{ 	c #622002",
"] 	c #441002",
"^ 	c #797471",
"/ 	c #8E8684",
"( 	c #524544",
"_ 	c #221410",
": 	c #340E08",
"< 	c #381002",
"[ 	c #341509",
"} 	c #722E18",
"| 	c #3D1208",
"1 	c #55320D",
"2 	c #4A2700",
"3 	c #090400",
"4 	c #020203",
"5 	c #D8D8D9",
"6 	c #FFFFFF",
"7 	c #827D7D",
"8 	c #120F0E",
"9 	c #080403",
"0 	c #040100",
"a 	c #221810",
"b 	c #321E18",
"c 	c #704124",
"d 	c #45281A",
"e 	c #4A2F22",
"f 	c #1E0600",
"g 	c #0D0200",
"h 	c #07090A",
"i 	c #DCDADA",
"j 	c #787777",
"k 	c #0F0807",
"l 	c #090302",
"m 	c #070101",
"n 	c #1E100B",
"o 	c #321C12",
"p 	c #704A30",
"q 	c #6D2813",
"r 	c #6D2E25",
"s 	c #904638",
"t 	c #601204",
"u 	c #34120D",
"v 	c #1C1C1C",
"w 	c #DBDAD9",
"x 	c #757575",
"y 	c #0F0705",
"z 	c #0D0300",
"A 	c #160301",
"B 	c #160604",
"C 	c #1C0C06",
"D 	c #3F281A",
"E 	c #753F27",
"F 	c #462614",
"G 	c #542E22",
"H 	c #A65848",
"I 	c #622212",
"J 	c #161515",
"K 	c #171619",
"L 	c #D8D8D8",
"M 	c #747474",
"N 	c #000000",
"O 	c #020000",
"P 	c #020101",
"Q 	c #0C0408",
"R 	c #291E1A",
"S 	c #040404",
"T 	c #34231E",
"U 	c #2C231B",
"V 	c #462C28",
"W 	c #885548",
"X 	c #412D27",
"Y 	c #2E2C28",
"Z 	c #080709",
"` 	c #040101",
" .	c #170604",
"..	c #3A221F",
"+.	c #1A1615",
"@.	c #161410",
"#.	c #251B19",
"$.	c #704E3F",
"%.	c #6C6762",
"&.	c #2D2B2A",
"*.	c #1D1410",
"=.	c #0C0707",
"-.	c #030102",
";.	c #0B0404",
">.	c #2C201B",
",.	c #6D5A51",
"'.	c #30271A",
").	c #2A2623",
"!.	c #3B4D4C",
"~.	c #688B8D",
"{.	c #131414",
"].	c #0E0A08",
"^.	c #140A07",
"/.	c #0E0603",
"(.	c #2C1D0C",
"_.	c #775234",
":.	c #5C4638",
"<.	c #504641",
"[.	c #3A4F52",
"}.	c #4B6A6E",
"|.	c #332E2F",
"1.	c #1B1615",
"2.	c #D9D8D8",
"3.	c #DCDCDC",
"4.	c #BFBFBF",
"5.	c #C1BFBF",
"6.	c #8D8D8C",
"7.	c #4B3012",
"8.	c #3D1F13",
"9.	c #3E1A17",
"0.	c #351716",
"a.	c #2B3A3E",
"b.	c #354247",
"c.	c #23292B",
"d.	c #040304",
"e.	c #DCDAD8",
"f.	c #C8C3BD",
"g.	c #190E07",
"h.	c #390E0C",
"i.	c #37110E",
"j.	c #1F2226",
"k.	c #212428",
"l.	c #0E1113",
"m.	c #0E1011",
"n.	c #483F41",
"o.	c #454343",
"p.	c #424242",
"q.	c #494747",
"r.	c #554F46",
"s.	c #65534A",
"t.	c #685745",
"u.	c #281710",
"v.	c #5E1A19",
"w.	c #2C100F",
"x.	c #09090A",
"y.	c #141318",
"z.	c #26262C",
"A.	c #0D0C10",
"B.	c #100604",
"C.	c #0A0407",
"D.	c #0C0C0F",
"E.	c #1F120B",
"F.	c #2F1C1C",
"G.	c #634C28",
"H.	c #826345",
"I.	c #402119",
"J.	c #161423",
"K.	c #1B1B24",
"L.	c #141522",
"M.	c #221B1F",
"N.	c #231424",
"O.	c #050614",
"P.	c #140919",
"Q.	c #2F251C",
"R.	c #433B23",
"S.	c #312D1D",
"T.	c #0C0E10",
"U.	c #292C35",
"V.	c #1E1D24",
"W.	c #100E2D",
"X.	c #140626",
"Y.	c #1A1510",
"          . + @ # $ %           ",
"      & * = - ; > , ' ) !       ",
"    ~ { ] ^ / ( _ : < [ } |     ",
"  1 2 3 4 5 6 7 8 9 0 a b c d   ",
"  e f g h i 6 j k l m n o p q   ",
"r s t u v w 6 x y z A B C D E F ",
"G H I J K L 6 M N O P Q R S T U ",
"V W X Y Z L 6 M N N `  ...+.@.#.",
"$.%.&.*.=.L 6 M N N -.;.>.,.'.).",
"!.~.{.].^.L 6 M N N P /.(._.:.<.",
"[.}.|.1.P 2.6 3.4.4.5.6.7.8.9.0.",
"  a.b.c.d.e.6 6 6 6 6 f.g.h.i.  ",
"  j.k.l.m.n.o.p.q.r.s.t.u.v.w.  ",
"    x.y.z.A.B.C.D.E.F.G.H.I.    ",
"      J.K.L.M.N.O.P.Q.R.S.      ",
"          T.U.V.W.X.Y.          "};
